<svg width="170" height="32" viewBox="0 0 170 32" fill="none" xmlns="http://www.w3.org/2000/svg">
<mask id="mask0_134_2" style="mask-type:luminance" maskUnits="userSpaceOnUse" x="0" y="0" width="9" height="29">
<path d="M0.480469 0.771484H8.33464V28.334H0.480469V0.771484Z" fill="white"/>
</mask>
<g mask="url(#mask0_134_2)">
<path d="M6.9349 27.2917H1.42448C0.934897 27.2917 0.539062 26.8958 0.539062 26.4062V2.22917C0.539062 1.73958 0.934897 1.34375 1.42448 1.34375H6.9349C7.41927 1.34375 7.82031 1.73958 7.82031 2.22917V26.4062C7.82031 26.8958 7.41927 27.2917 6.9349 27.2917Z" fill="white"/>
</g>
<mask id="mask1_134_2" style="mask-type:luminance" maskUnits="userSpaceOnUse" x="0" y="28" width="33" height="4">
<path d="M0.480469 28.334H32.6419V31.1777H0.480469V28.334Z" fill="white"/>
</mask>
<g mask="url(#mask1_134_2)">
<path d="M32.6693 29.0625V30.6927C32.6693 30.9687 32.4453 31.1771 32.1849 31.1771H1.02344C0.747396 31.1771 0.539062 30.9531 0.539062 30.6927V29.0625C0.539062 28.7865 0.76302 28.5781 1.02344 28.5781H32.1849C32.4609 28.5781 32.6693 28.8021 32.6693 29.0625Z" fill="white"/>
</g>
<mask id="mask2_134_2" style="mask-type:luminance" maskUnits="userSpaceOnUse" x="9" y="0" width="9" height="29">
<path d="M9.66797 0.771484H17.668V28.334H9.66797V0.771484Z" fill="white"/>
</mask>
<g mask="url(#mask2_134_2)">
<path d="M16.2318 27.2917H10.7214C10.237 27.2917 9.83594 26.8958 9.83594 26.4062V2.22917C9.83594 1.73958 10.237 1.34375 10.7214 1.34375H16.2318C16.7161 1.34375 17.1172 1.73958 17.1172 2.22917V26.4062C17.1016 26.8958 16.7161 27.2917 16.2318 27.2917Z" fill="#7ED957"/>
</g>
<mask id="mask3_134_2" style="mask-type:luminance" maskUnits="userSpaceOnUse" x="17" y="0" width="16" height="29">
<path d="M17.668 0.771484H32.6419V28.334H17.668V0.771484Z" fill="white"/>
</mask>
<g mask="url(#mask3_134_2)">
<path d="M32.0433 25.6982L26.7621 27.2399C26.2933 27.3805 25.8037 27.1201 25.6683 26.6514L18.8193 3.45867C18.6787 2.98992 18.9391 2.50554 19.4079 2.36492L24.6943 0.807624C25.1631 0.666999 25.6475 0.927415 25.7881 1.39617L32.6371 24.6045C32.7725 25.0733 32.5121 25.5576 32.0433 25.6982Z" fill="white"/>
</g>
<path d="M40.7891 9.48763H43.6016V20.7585C43.7786 24.0918 45.3151 25.8105 48.2057 25.9251C50.6641 25.9251 52.1953 24.4199 52.8099 21.4043C52.8099 21.3783 52.8099 21.3522 52.8099 21.321L51.7266 21.1335C51.0599 23.3418 50.0859 24.5449 48.8099 24.7376C47.362 24.6855 46.6276 23.6543 46.6016 21.6543V9.48763H52.8099V8.48763H46.6016V3.8418L43.6016 4.67513V8.48763H40.7891V9.48763Z" fill="white"/>
<path d="M75.6562 24.4883H73.6562V8.48828H67.3854V9.48828H70.6562V18.1341C70.6562 20.5247 69.8125 22.2799 68.1354 23.4049C67.3854 23.9206 66.6146 24.1758 65.8229 24.1758C63.625 24.1758 62.3542 23.0508 62.0104 20.8008C61.9531 20.4258 61.9271 20.0299 61.9271 19.6133V8.48828H55.8438V9.48828H58.9271V19.0091C58.9531 23.5664 60.8646 25.8529 64.6562 25.8841C66.6562 25.8841 68.2917 25.0716 69.5729 23.4466C70.0573 22.8372 70.4479 22.1549 70.7396 21.4049L71.0104 25.4883H76.6562C76.6562 24.9049 76.4531 24.5872 76.0521 24.5299C75.9531 24.5039 75.8229 24.4883 75.6562 24.4883Z" fill="white"/>
<path d="M80.5742 9.48763H83.3867V20.7585C83.5638 24.0918 85.1003 25.8105 87.9909 25.9251C90.4492 25.9251 91.9805 24.4199 92.5951 21.4043C92.5951 21.3783 92.5951 21.3522 92.5951 21.321L91.5117 21.1335C90.8451 23.3418 89.8711 24.5449 88.5951 24.7376C87.1471 24.6855 86.4128 23.6543 86.3867 21.6543V9.48763H92.5951V8.48763H86.3867V3.8418L83.3867 4.67513V8.48763H80.5742V9.48763Z" fill="white"/>
<path d="M95.6289 9.48763H98.4414V20.7585C98.6185 24.0918 100.155 25.8105 103.046 25.9251C105.504 25.9251 107.035 24.4199 107.65 21.4043C107.65 21.3783 107.65 21.3522 107.65 21.321L106.566 21.1335C105.9 23.3418 104.926 24.5449 103.65 24.7376C102.202 24.6855 101.467 23.6543 101.441 21.6543V9.48763H107.65V8.48763H101.441V3.8418L98.4414 4.67513V8.48763H95.6289V9.48763Z" fill="white"/>
<path d="M114.888 16.9661C114.888 12.8307 116.018 10.3099 118.284 9.40365C118.878 9.1849 119.497 9.07031 120.138 9.07031C123.096 9.07031 124.815 10.9401 125.305 14.6745C125.372 15.3151 125.409 16.0234 125.409 16.7995C125.409 21.2891 124.185 23.9193 121.742 24.6953C121.253 24.8203 120.763 24.8828 120.263 24.8828C117.565 24.8828 115.872 23.2891 115.18 20.0911C114.982 19.1484 114.888 18.1068 114.888 16.9661ZM120.263 8.07031C117.69 8.07031 115.555 8.95573 113.846 10.7161C112.273 12.3411 111.492 14.3724 111.492 16.7995C111.492 20.1641 112.721 22.6849 115.18 24.362C116.664 25.3776 118.315 25.8828 120.138 25.8828C122.69 25.8828 124.81 24.9818 126.492 23.1745C128.044 21.5078 128.826 19.4401 128.826 16.9661C128.826 13.6068 127.581 11.112 125.096 9.48698C123.622 8.54427 122.013 8.07031 120.263 8.07031Z" fill="white"/>
<path d="M142.626 24.4883H139.751V16.5299C139.751 14.1029 140.491 12.1497 141.98 10.6758C142.564 10.1237 143.053 9.83203 143.46 9.80078C143.918 9.80078 144.335 10.1341 144.71 10.8008C145.137 11.5508 145.533 11.9779 145.897 12.0716C146.064 12.1289 146.22 12.1549 146.376 12.1549C147.178 12.1549 147.689 11.7747 147.897 11.0091C147.949 10.8424 147.98 10.6862 147.98 10.5299C147.98 9.32161 147.366 8.58724 146.147 8.32161C145.882 8.26953 145.626 8.23828 145.376 8.23828C143.777 8.23828 142.355 8.92057 141.105 10.2799C140.522 10.9206 140.053 11.6445 139.71 12.4466L139.543 8.48828H133.73V9.48828H136.751V22.0924C136.751 23.3164 136.402 24.0456 135.71 24.2799C135.303 24.4206 134.647 24.4883 133.73 24.4883V25.4883H143.626C143.626 24.9049 143.423 24.5872 143.022 24.5299C142.908 24.5039 142.777 24.4883 142.626 24.4883Z" fill="white"/>
<path d="M165.879 25.8828C167.931 25.8828 169.066 24.6484 169.275 22.1745C169.301 22.0078 169.316 21.8568 169.316 21.7161L168.275 21.6953C168.092 23.6432 167.572 24.6276 166.712 24.6536C166.014 24.6016 165.66 23.9036 165.65 22.5703V14.112C165.65 10.3099 163.738 8.29427 159.921 8.07031C159.681 8.07031 159.441 8.07031 159.191 8.07031C156.202 8.07031 154.202 8.76823 153.191 10.1536C152.868 10.612 152.712 11.0703 152.712 11.5286C152.712 12.3516 153.098 12.8307 153.879 12.9661C154.004 12.9974 154.134 13.0078 154.275 13.0078C154.884 13.0078 155.337 12.6224 155.629 11.8411C156.004 10.8568 156.259 10.2682 156.4 10.0703C156.9 9.40365 157.681 9.07031 158.754 9.07031C161.264 9.23698 162.556 10.612 162.629 13.1953V15.7161C156.363 15.7161 152.78 17.0286 151.879 19.6536C151.712 20.1536 151.629 20.6953 151.629 21.2786C151.629 23.3099 152.525 24.6953 154.316 25.4453C155.035 25.737 155.796 25.8828 156.587 25.8828C158.546 25.8828 160.191 25.2161 161.525 23.8828C161.993 23.3828 162.358 22.8516 162.608 22.2786C162.926 24.6536 164.014 25.8516 165.879 25.8828ZM157.921 24.2786C156.296 24.2786 155.296 23.4661 154.921 21.8411C154.837 21.4661 154.796 21.0599 154.796 20.612C154.796 18.8203 155.822 17.6849 157.879 17.1953C158.973 16.9609 160.556 16.8307 162.629 16.7995V20.0078C162.238 21.8411 161.264 23.1328 159.712 23.8828C159.098 24.1484 158.504 24.2786 157.921 24.2786Z" fill="white"/>
</svg>
